<?xml version="1.0" standalone="no"?>
<!DOCTYPE svg PUBLIC "-//W3C//DTD SVG 20010904//EN"
 "http://www.w3.org/TR/2001/REC-SVG-20010904/DTD/svg10.dtd">
<svg version="1.0" xmlns="http://www.w3.org/2000/svg"
 width="594.000000pt" height="594.000000pt" viewBox="0 0 594.000000 594.000000"
 preserveAspectRatio="xMidYMid meet">
<metadata>
Created by potrace 1.14, written by Peter Selinger 2001-2017
</metadata>
<g transform="translate(0.000000,594.000000) scale(0.100000,-0.100000)"
fill="#000000" stroke="none">
<path d="M1083 5921 c-88 -32 -155 -98 -194 -191 -12 -30 -14 -410 -14 -2765
l0 -2730 23 -47 c33 -65 88 -122 152 -155 l55 -28 1865 0 1865 0 49 24 c63 31
126 94 156 156 l25 50 0 2735 0 2735 -25 49 c-34 68 -85 119 -150 153 l-55 28
-1850 2 c-1785 2 -1852 2 -1902 -16z"/>
</g>
</svg>
